<svg version="1.1" id="Layer_1" xmlns="http://www.w3.org/2000/svg" xmlns:xlink="http://www.w3.org/1999/xlink" x="0px" y="0px"
	 width="100%" viewBox="0 0 98 122" enable-background="new 0 0 98 122" xml:space="preserve">
<path fill="none" opacity="1.000000" stroke="#000000" stroke-linecap="round" stroke-linejoin="round" stroke-width="4.000000"
	d="
M65.000000,16.500000 
	C59.634430,12.587588 53.663383,14.830942 48.004887,15.101984 
	C38.320518,15.565866 28.677050,16.848509 18.994370,17.401375 
	C15.605067,17.594898 14.250366,18.564405 14.466488,22.002108 
	C15.063353,31.496017 15.575933,40.996750 15.982773,50.500736 
	C16.646032,65.994797 17.803621,81.472153 17.520538,97.000374 
	C17.420841,102.469170 17.530167,102.562393 22.999765,102.483711 
	C43.333687,102.191216 63.666710,101.835655 83.999649,101.479904 
	C84.335869,101.474022 84.666817,101.166977 85.212708,100.894341 
	C86.207382,96.333336 84.948059,91.666527 85.002205,87.000023 
	C85.162697,73.166618 85.272659,59.332222 85.526047,45.500477 
	C85.649574,38.757427 84.405563,32.842720 78.550674,28.432728 
	C73.849876,24.892019 70.736557,19.521509 65.500000,16.500000 
"/>
<path fill="none" opacity="1.000000" stroke="#000000" stroke-linecap="round" stroke-linejoin="round" stroke-width="4.000000"
	d="
M64.500000,17.000000 
	C64.500000,22.921362 64.500000,28.842722 64.500000,35.608601 
	C70.578453,36.509895 77.289223,37.504948 84.000000,38.500000 
"/>
<path fill="none" opacity="1.000000" stroke="#000000" stroke-linecap="round" stroke-linejoin="round" stroke-width="4.000000"
	d="
M30.500000,24.500000 
	C30.800636,28.666666 32.397491,32.718822 30.636415,37.055397 
	C29.914734,38.832508 29.455132,40.334911 27.496939,40.446087 
	C25.527454,40.557899 24.343346,39.566071 23.400087,37.546669 
	C21.479342,33.434589 22.241772,29.197655 22.000000,25.000000 
"/>
<path fill="none" opacity="1.000000" stroke="#000000" stroke-linecap="round" stroke-linejoin="round" stroke-width="4.000000"
	d="
M50.000000,52.500000 
	C45.768913,50.837456 41.373672,52.619610 36.932091,51.951363 
	C33.619648,51.452995 30.227436,55.700768 28.515293,59.506878 
	C25.509899,66.187904 23.287561,72.926674 27.483044,80.010040 
	C28.779305,82.198555 28.581388,84.869171 30.407011,87.076897 
	C35.238415,92.919510 47.839748,96.047226 54.486752,92.475349 
	C57.540676,90.834267 61.117661,91.175186 64.142479,88.672180 
	C68.054749,85.434853 68.882957,80.740219 71.304741,76.877579 
	C73.538071,73.315491 73.143028,68.917763 70.587654,64.943634 
	C69.406998,63.107468 69.708298,60.225868 68.381935,58.596088 
	C65.970573,55.633118 63.636482,52.340981 58.431683,53.747128 
	C56.257336,54.334557 53.264866,52.476265 50.500000,52.500000 
"/>
<path fill="none" opacity="1.000000" stroke="#000000" stroke-linecap="round" stroke-linejoin="round" stroke-width="5.000000"
	d="
M52.000000,21.500000 
	C52.000000,25.500000 51.921509,29.502165 52.031757,33.499123 
	C52.090481,35.628029 53.218994,37.301937 55.000000,38.500000 
"/>
<path fill="none" opacity="1.000000" stroke="#000000" stroke-linecap="round" stroke-linejoin="round" stroke-width="4.000000"
	d="
M50.000000,53.000000 
	C48.986855,57.804146 49.642838,62.666538 49.517746,67.500458 
	C49.296124,76.065002 46.886612,84.407181 47.000000,93.000000 
"/>
<path fill="none" opacity="1.000000" stroke="#000000" stroke-linecap="round" stroke-linejoin="round" stroke-width="4.000000"
	d="
M41.000000,53.500000 
	C38.826790,58.937016 34.859577,63.623592 34.849907,69.999771 
	C34.846622,72.167870 34.257824,74.370033 35.032112,76.488266 
	C35.639748,78.150574 35.778614,79.623550 34.500000,81.000000 
"/>
<path fill="none" opacity="1.000000" stroke="#000000" stroke-linecap="round" stroke-linejoin="round" stroke-width="4.000000"
	d="
M58.500000,54.500000 
	C60.129883,59.420921 62.228020,64.292717 62.409485,69.503151 
	C62.596493,74.872810 63.533840,80.543617 58.099148,84.631805 
	C56.480675,85.849281 55.814865,88.571243 56.000000,91.000000 
"/>
<path fill="none" opacity="1.000000" stroke="#000000" stroke-linecap="round" stroke-linejoin="round" stroke-width="4.000000"
	d="
M49.000000,68.500000 
	C44.499191,68.355148 39.972710,68.903542 35.500000,68.000000 
"/>
<path fill="none" opacity="1.000000" stroke="#000000" stroke-linecap="round" stroke-linejoin="round" stroke-width="4.000000"
	d="
M61.000000,67.500000 
	C57.316467,67.295624 53.739185,69.428757 50.000000,68.000000 
"/>
<path fill="none" opacity="1.000000" stroke="#000000" stroke-linecap="round" stroke-linejoin="round" stroke-width="4.000000"
	d="
M38.500000,84.000000 
	C44.750000,84.250000 51.000000,84.500000 57.250000,84.750000 
"/>
<path fill="none" opacity="1.000000" stroke="#000000" stroke-linecap="round" stroke-linejoin="round" stroke-width="5.000000"
	d="
M38.000000,28.500000 
	C39.363529,32.500000 37.481934,36.500000 38.000000,40.500000 
"/>
<path fill="none" opacity="1.000000" stroke="#000000" stroke-linecap="round" stroke-linejoin="round" stroke-width="5.000000"
	d="
M29.000000,81.000000 
	C37.555084,82.114357 38.534042,83.093315 39.000000,91.000000 
"/>
</svg>