<svg xmlns="http://www.w3.org/2000/svg" version="1.1" viewBox="0.00 0.00 98.00 122.00">
    <path stroke="#f8f8f8" fill="none" stroke-width="1.00" vector-effect="non-scaling-stroke" d="
  M 0.00 0.00
  L 98.00 0.00
  L 98.00 122.00
  L 0.00 122.00
  L 0.00 0.00"
    />
    <path stroke="#7e7e7e" fill="none" stroke-width="1.00" vector-effect="non-scaling-stroke" d="
  M 86.31 37.75
  L 86.19 36.47
  L 85.77 35.13
  L 84.06 32.07
  L 81.16 28.49
  L 76.96 24.30
  L 68.60 15.75
  L 65.14 12.08
  L 64.26 11.70
  L 57.23 11.85
  L 49.65 12.24
  L 29.67 13.87
  L 13.06 15.27
  L 12.54 15.41
  L 12.11 15.74
  L 11.84 16.21
  L 11.76 16.74
  L 12.69 35.56
  L 13.75 57.17
  L 14.35 72.98
  L 14.64 87.30
  L 14.63 100.39
  L 14.82 101.38
  L 15.37 102.22
  L 16.21 102.79
  L 17.20 102.99
  L 17.20 102.99
  L 17.22 102.99
  L 84.74 102.37
  L 84.75 102.37
  L 85.66 101.97
  L 86.02 101.05
  L 85.79 85.32
  L 85.76 69.53
  L 85.93 53.67
  L 86.31 37.75"
    />
    <path stroke="#7e7e7e" fill="none" stroke-width="1.00" vector-effect="non-scaling-stroke" d="
  M 62.04 36.29
  L 62.00 36.28
  L 61.27 35.84
  L 61.09 35.00
  L 61.91 29.16
  L 62.09 24.07
  L 61.64 19.58
  L 60.56 15.70
  L 60.25 15.32
  L 59.79 15.18
  L 53.42 15.26
  L 46.29 15.63
  L 26.31 17.43
  L 15.38 18.51
  L 15.01 18.68
  L 14.91 19.07
  L 16.20 40.13
  L 17.17 61.20
  L 17.17 61.20
  L 17.76 80.26
  L 18.09 99.32
  L 18.20 99.61
  L 18.47 99.69
  L 82.17 99.15
  L 82.40 99.07
  L 82.48 98.83
  L 82.76 40.01
  L 82.64 39.64
  L 82.33 39.41
  L 79.36 38.58
  L 75.93 37.89
  L 66.45 36.75
  L 62.04 36.29"
    />
    <path stroke="#7e7e7e" fill="none" stroke-width="1.00" vector-effect="non-scaling-stroke" d="
  M 64.70 16.82
  L 65.11 21.18
  L 65.27 25.28
  L 65.16 29.13
  L 64.80 32.71
  L 64.86 33.05
  L 65.17 33.21
  L 82.11 35.82
  L 82.53 35.66
  L 82.62 35.23
  L 82.62 35.23
  L 82.51 35.05
  L 64.88 16.74
  L 64.71 16.77
  L 64.70 16.82"
    />
    <path stroke="#7e7e7e" fill="none" stroke-width="1.00" vector-effect="non-scaling-stroke" d="
  M 49.37 32.61
  L 49.82 34.83
  L 50.93 36.96
  L 52.29 38.31
  L 52.99 38.64
  L 53.73 38.75
  L 54.62 38.56
  L 55.54 37.97
  L 55.72 37.77
  L 55.91 37.31
  L 55.88 36.82
  L 55.64 36.38
  L 55.23 36.10
  L 54.31 35.56
  L 53.37 34.40
  L 52.79 32.68
  L 52.58 30.35
  L 52.69 26.97
  L 52.80 24.23
  L 52.68 22.45
  L 52.28 21.11
  L 51.63 20.34
  L 50.64 20.00
  L 50.53 19.99
  L 49.98 20.10
  L 49.52 20.41
  L 49.22 20.89
  L 49.14 21.44
  L 49.37 32.61"
    />
    <path stroke="#7e7e7e" fill="none" stroke-width="1.00" vector-effect="non-scaling-stroke" d="
  M 26.35 38.06
  L 25.79 37.94
  L 24.90 37.41
  L 24.19 36.52
  L 23.62 35.29
  L 23.15 33.60
  L 22.65 29.23
  L 22.69 23.23
  L 22.72 22.58
  L 22.58 22.11
  L 22.17 21.85
  L 20.34 21.43
  L 19.77 21.54
  L 19.46 22.02
  L 19.45 22.06
  L 19.17 28.68
  L 19.34 31.45
  L 19.71 33.93
  L 20.29 36.06
  L 21.05 37.79
  L 22.00 39.21
  L 23.20 40.33
  L 25.07 41.31
  L 26.85 41.50
  L 26.85 41.50
  L 27.78 41.28
  L 28.67 40.83
  L 29.72 39.92
  L 30.52 38.72
  L 31.14 37.23
  L 31.59 35.32
  L 31.85 33.10
  L 31.92 30.56
  L 31.51 24.18
  L 31.35 22.38
  L 31.13 21.89
  L 30.63 21.68
  L 28.74 21.57
  L 28.24 21.75
  L 28.03 22.24
  L 28.03 22.28
  L 28.26 25.01
  L 28.60 29.52
  L 28.54 32.84
  L 28.07 35.51
  L 27.17 37.64
  L 26.82 37.98
  L 26.35 38.06"
    />
    <path stroke="#7e7e7e" fill="none" stroke-width="1.00" vector-effect="non-scaling-stroke" d="
  M 38.51 29.40
  L 38.31 28.27
  L 37.76 27.45
  L 37.11 27.06
  L 36.36 27.03
  L 35.68 27.35
  L 35.24 27.96
  L 35.24 27.96
  L 35.13 28.57
  L 35.40 39.67
  L 35.67 40.27
  L 36.29 40.48
  L 36.35 40.47
  L 37.87 40.23
  L 38.32 39.99
  L 38.51 39.52
  L 38.71 35.23
  L 38.85 34.63
  L 39.14 34.17
  L 40.48 32.94
  L 41.98 32.10
  L 41.98 32.10
  L 44.02 31.60
  L 46.29 31.66
  L 46.78 31.54
  L 47.07 31.12
  L 47.43 29.57
  L 47.38 29.01
  L 46.89 28.71
  L 44.52 28.42
  L 42.26 28.63
  L 42.26 28.63
  L 40.71 29.10
  L 39.21 29.83
  L 38.67 29.94
  L 38.51 29.40"
    />
    <path stroke="#7e7e7e" fill="none" stroke-width="1.00" vector-effect="non-scaling-stroke" d="
  M 32.30 91.51
  L 35.89 93.62
  L 39.37 95.11
  L 42.88 96.02
  L 46.30 96.32
  L 49.60 96.06
  L 53.00 95.21
  L 56.46 93.85
  L 59.71 92.15
  L 62.72 90.12
  L 65.42 87.77
  L 67.69 85.26
  L 69.60 82.50
  L 71.08 79.60
  L 72.16 76.49
  L 72.62 74.36
  L 72.89 72.16
  L 72.83 67.74
  L 72.18 64.11
  L 71.02 60.73
  L 69.59 57.93
  L 67.82 55.37
  L 65.67 52.99
  L 63.23 50.91
  L 60.53 49.14
  L 57.61 47.71
  L 54.50 46.64
  L 51.24 45.95
  L 47.06 45.65
  L 43.04 45.97
  L 39.12 46.92
  L 35.48 48.45
  L 32.07 50.58
  L 29.09 53.21
  L 26.58 56.29
  L 24.61 59.77
  L 23.78 61.79
  L 23.14 63.91
  L 22.69 66.11
  L 22.45 68.38
  L 22.41 70.65
  L 22.58 72.98
  L 23.52 77.55
  L 25.17 82.10
  L 27.24 86.08
  L 29.61 89.20
  L 30.90 90.44
  L 32.30 91.51"
    />
    <path stroke="#7e7e7e" fill="none" stroke-width="1.00" vector-effect="non-scaling-stroke" d="
  M 39.20 50.35
  L 38.88 50.60
  L 38.85 51.30
  L 39.45 51.65
  L 40.46 51.40
  L 40.46 51.40
  L 41.00 50.97
  L 41.44 50.34
  L 41.56 49.67
  L 40.89 49.72
  L 39.20 50.35"
    />
    <path stroke="#7e7e7e" fill="none" stroke-width="1.00" vector-effect="non-scaling-stroke" d="
  M 50.64 50.75
  L 49.95 52.39
  L 50.07 52.69
  L 50.20 52.74
  L 52.78 53.48
  L 53.68 53.46
  L 54.10 53.18
  L 54.11 53.16
  L 54.11 53.16
  L 54.01 52.66
  L 53.40 52.01
  L 51.07 50.68
  L 50.94 50.62
  L 50.64 50.75"
    />
    <path stroke="#7e7e7e" fill="none" stroke-width="1.00" vector-effect="non-scaling-stroke" d="
  M 47.1113 51.9416
  L 46.6148 51.4051
  L 45.6819 51.3401
  L 44.8593 51.7847
  L 44.6287 52.4784
  L 45.1252 53.0149
  L 46.0581 53.0799
  L 46.8807 52.6353
  L 47.1113 51.9416"
    />
    <path stroke="#7e7e7e" fill="none" stroke-width="1.00" vector-effect="non-scaling-stroke" d="
  M 58.8215 52.4158
  L 58.8098 51.9982
  L 58.4349 51.6227
  L 57.9166 51.5092
  L 57.5585 51.7242
  L 57.5702 52.1418
  L 57.9451 52.5173
  L 58.4634 52.6308
  L 58.8215 52.4158"
    />
    <path stroke="#7e7e7e" fill="none" stroke-width="1.00" vector-effect="non-scaling-stroke" d="
  M 36.77 54.66
  L 36.87 54.10
  L 36.70 53.55
  L 36.31 53.14
  L 35.77 52.95
  L 35.61 52.95
  L 34.18 53.00
  L 33.69 53.12
  L 33.29 53.43
  L 27.91 59.77
  L 27.62 60.63
  L 28.00 61.45
  L 30.85 64.10
  L 31.35 64.38
  L 31.93 64.40
  L 32.45 64.16
  L 32.80 63.70
  L 36.77 54.66"
    />
    <path stroke="#7e7e7e" fill="none" stroke-width="1.00" vector-effect="non-scaling-stroke" d="
  M 63.36 64.05
  L 67.41 62.12
  L 67.67 61.84
  L 67.68 61.44
  L 67.66 61.40
  L 67.57 61.22
  L 65.98 58.37
  L 64.25 56.13
  L 62.66 54.85
  L 61.99 54.63
  L 61.43 54.71
  L 61.43 54.71
  L 61.36 54.75
  L 60.95 55.13
  L 60.69 55.78
  L 60.68 57.83
  L 61.34 60.58
  L 62.55 63.61
  L 62.64 63.80
  L 62.95 64.07
  L 63.36 64.05"
    />
    <path stroke="#7e7e7e" fill="none" stroke-width="1.00" vector-effect="non-scaling-stroke" d="
  M 36.11 64.11
  L 36.00 64.46
  L 36.04 64.94
  L 36.28 65.37
  L 36.66 65.66
  L 37.14 65.77
  L 45.73 65.90
  L 45.90 65.89
  L 46.61 65.52
  L 46.91 64.76
  L 47.03 57.38
  L 46.75 56.60
  L 46.03 56.21
  L 41.10 55.52
  L 40.39 55.64
  L 39.89 56.17
  L 36.11 64.11"
    />
    <path stroke="#7e7e7e" fill="none" stroke-width="1.00" vector-effect="non-scaling-stroke" d="
  M 50.17 65.07
  L 50.30 65.47
  L 50.66 65.70
  L 50.87 65.72
  L 58.64 64.96
  L 58.68 64.95
  L 59.12 64.66
  L 59.19 64.13
  L 56.98 56.94
  L 56.50 56.51
  L 56.37 56.49
  L 51.01 56.51
  L 50.57 56.69
  L 50.37 57.13
  L 50.17 65.07"
    />
    <path stroke="#7e7e7e" fill="none" stroke-width="1.00" vector-effect="non-scaling-stroke" d="
  M 25.85 74.93
  L 26.09 75.38
  L 31.63 79.15
  L 32.21 79.18
  L 32.49 78.67
  L 31.94 68.48
  L 31.66 68.03
  L 26.57 65.15
  L 26.02 65.16
  L 25.75 65.63
  L 25.85 74.93"
    />
    <path stroke="#7e7e7e" fill="none" stroke-width="1.00" vector-effect="non-scaling-stroke" d="
  M 62.42 79.27
  L 62.48 79.48
  L 62.90 79.58
  L 69.42 75.90
  L 69.58 75.62
  L 69.67 65.39
  L 69.67 65.37
  L 69.52 65.12
  L 69.23 65.09
  L 63.47 67.42
  L 63.28 67.69
  L 62.42 79.27"
    />
    <path stroke="#7e7e7e" fill="none" stroke-width="1.00" vector-effect="non-scaling-stroke" d="
  M 60.26 69.37
  L 60.03 68.57
  L 59.65 68.29
  L 59.17 68.23
  L 50.87 69.17
  L 50.28 69.45
  L 49.99 70.03
  L 48.64 81.03
  L 48.64 81.11
  L 48.96 81.87
  L 49.74 82.13
  L 57.61 81.19
  L 58.19 80.91
  L 58.47 80.36
  L 60.26 69.37"
    />
    <path stroke="#7e7e7e" fill="none" stroke-width="1.00" vector-effect="non-scaling-stroke" d="
  M 36.19 79.96
  L 36.43 80.47
  L 36.93 80.73
  L 44.32 81.77
  L 44.97 81.60
  L 45.31 81.02
  L 46.61 70.08
  L 46.60 69.80
  L 46.30 69.31
  L 45.77 69.11
  L 35.96 68.78
  L 35.80 68.79
  L 35.24 69.12
  L 35.07 69.75
  L 36.19 79.96"
    />
    <path stroke="#7e7e7e" fill="none" stroke-width="1.00" vector-effect="non-scaling-stroke" d="
  M 34.10 83.51
  L 33.92 83.34
  L 28.98 81.35
  L 28.65 81.38
  L 28.48 81.61
  L 28.53 81.90
  L 31.64 86.62
  L 31.80 86.75
  L 36.19 88.70
  L 36.52 88.68
  L 36.70 88.46
  L 36.66 88.18
  L 34.10 83.51"
    />
    <path stroke="#7e7e7e" fill="none" stroke-width="1.00" vector-effect="non-scaling-stroke" d="
  M 65.56 81.99
  L 62.66 82.71
  L 60.22 84.04
  L 58.32 85.86
  L 56.83 88.21
  L 56.73 88.83
  L 57.36 88.83
  L 59.59 87.86
  L 61.94 86.30
  L 64.06 84.36
  L 65.74 82.27
  L 65.80 82.03
  L 65.56 81.99"
    />
    <path stroke="#7e7e7e" fill="none" stroke-width="1.00" vector-effect="non-scaling-stroke" d="
  M 44.66 85.39
  L 44.56 85.09
  L 44.30 84.93
  L 44.28 84.93
  L 38.88 84.20
  L 38.56 84.29
  L 38.39 84.57
  L 38.46 84.90
  L 41.75 89.47
  L 41.94 89.62
  L 43.81 90.37
  L 44.06 90.39
  L 44.41 89.99
  L 44.66 85.39"
    />
    <path stroke="#7e7e7e" fill="none" stroke-width="1.00" vector-effect="non-scaling-stroke" d="
  M 54.81 85.53
  L 54.89 85.41
  L 54.85 84.91
  L 54.40 84.69
  L 48.39 85.18
  L 48.33 85.18
  L 48.05 85.35
  L 47.93 85.64
  L 47.65 89.71
  L 47.79 90.09
  L 48.17 90.25
  L 48.17 90.25
  L 48.24 90.24
  L 50.74 89.80
  L 51.02 89.65
  L 54.81 85.53"
    />
</svg>
