<svg xmlns="http://www.w3.org/2000/svg" width="49" height="61" viewBox="0 0 49 61" version="1.1"><path d="M 15.500 6.692 C 12.750 6.874, 9.480 7.253, 8.234 7.534 L 5.967 8.046 6.611 29.273 C 6.965 40.948, 7.566 50.846, 7.946 51.269 C 8.327 51.692, 16.370 51.734, 25.819 51.363 L 43 50.687 43 33.784 L 43 16.880 37.855 11.440 L 32.710 6 26.605 6.180 C 23.247 6.279, 18.250 6.509, 15.500 6.692 M 12.098 8.740 L 7.696 9.130 8.348 22.723 C 8.707 30.199, 9 39.395, 9 43.158 L 9 50 25.026 50 L 41.052 50 40.776 34.750 L 40.500 19.500 38 19.220 C 31.178 18.456, 31 18.297, 31 12.981 L 31 8 23.750 8.175 C 19.762 8.271, 14.519 8.525, 12.098 8.740 M 32.605 12.786 C 32.705 16.301, 32.920 16.535, 36.605 17.145 C 38.747 17.499, 40.603 17.696, 40.729 17.582 C 40.855 17.468, 39.055 15.507, 36.729 13.224 L 32.500 9.072 32.605 12.786 M 25.160 14.250 C 25.033 18.031, 25.331 19, 26.622 19 C 27.810 19, 27.966 18.664, 27.204 17.746 C 26.632 17.056, 25.974 14.919, 25.742 12.996 C 25.381 10.004, 25.297 10.185, 25.160 14.250 M 10.107 14.628 C 9.981 19.490, 12.056 22.028, 14.500 20 C 16.174 18.611, 16.597 11, 15 11 C 14.450 11, 14 12.800, 14 15 C 14 20.260, 12.368 20.116, 11.166 14.750 L 10.214 10.500 10.107 14.628 M 17.418 15.132 C 17.186 15.508, 17.374 16.836, 17.835 18.084 L 18.675 20.353 19.244 18.176 C 19.557 16.979, 20.530 16, 21.406 16 C 22.283 16, 23 15.555, 23 15.011 C 23 13.927, 18.098 14.033, 17.418 15.132 M 15.566 26.076 C 4.678 35.636, 16.150 53.145, 28.961 46.520 C 33.673 44.084, 36 40.304, 36 35.088 C 36 27.527, 31.163 23, 23.084 23 C 20.027 23, 18.234 23.734, 15.566 26.076 M 15.032 28.939 C 14.308 30.292, 14.318 31.078, 15.064 31.539 C 16.352 32.336, 16.555 32.141, 17.443 29.250 C 18.299 26.465, 16.482 26.231, 15.032 28.939 M 19.035 29.934 C 17.557 32.696, 17.702 33, 20.500 33 C 22.500 33, 23 32.500, 23 30.500 C 23 27.489, 20.532 27.137, 19.035 29.934 M 25.688 28.646 C 24.147 30.186, 25.040 33, 27.070 33 C 28.625 33, 29.060 32.461, 28.820 30.828 C 28.488 28.573, 26.880 27.453, 25.688 28.646 M 30.710 30 C 31.245 32.045, 32.155 32.512, 33.325 31.342 C 34.052 30.614, 32.211 28, 30.971 28 C 30.540 28, 30.423 28.900, 30.710 30 M 13.173 35.564 C 13.353 37.094, 14.097 38.542, 14.827 38.782 C 15.762 39.089, 16.057 38.397, 15.827 36.436 C 15.647 34.906, 14.903 33.458, 14.173 33.218 C 13.238 32.911, 12.943 33.603, 13.173 35.564 M 31.787 36 C 31.545 37.650, 31.628 39, 31.973 39 C 33.235 39, 35 36.551, 35 34.800 C 35 31.766, 32.258 32.790, 31.787 36 M 18 37.032 C 18 38.627, 18.669 40.043, 19.590 40.396 C 21.822 41.253, 23 40.272, 23 37.558 C 23 35.872, 22.313 35.102, 20.500 34.755 C 18.323 34.339, 18 34.633, 18 37.032 M 26.250 34.662 C 24.572 35.340, 24.616 41, 26.300 41 C 28.303 41, 30 38.845, 30 36.300 C 30 34.083, 28.888 33.598, 26.250 34.662 M 15.229 42.188 C 15.447 42.841, 16.160 43.553, 16.813 43.771 C 17.544 44.015, 17.767 43.557, 17.394 42.584 C 16.696 40.766, 14.629 40.388, 15.229 42.188 M 29.981 42.523 C 28.924 43.796, 28.986 43.943, 30.359 43.416 C 31.261 43.069, 32 42.384, 32 41.893 C 32 40.607, 31.421 40.788, 29.981 42.523 M 20 42.941 C 20 43.459, 20.450 44.160, 21 44.500 C 21.550 44.840, 22 44.416, 22 43.559 C 22 42.702, 21.550 42, 21 42 C 20.450 42, 20 42.423, 20 42.941 M 24 44 C 24 44.550, 24.423 45, 24.941 45 C 25.459 45, 26.160 44.550, 26.500 44 C 26.840 43.450, 26.416 43, 25.559 43 C 24.702 43, 24 43.450, 24 44" stroke="none" fill="#282828" fill-rule="evenodd"/><path d="M 0 30.517 L 0 61.035 24.750 60.767 L 49.500 60.500 49.765 30.250 L 50.029 0 25.015 0 L 0 0 0 30.517 M 0.444 31 C 0.444 47.775, 0.581 54.637, 0.748 46.250 C 0.915 37.862, 0.915 24.137, 0.748 15.750 C 0.581 7.362, 0.444 14.225, 0.444 31 M 15.500 6.692 C 12.750 6.874, 9.480 7.253, 8.234 7.534 L 5.967 8.046 6.611 29.273 C 6.965 40.948, 7.566 50.846, 7.946 51.269 C 8.327 51.692, 16.370 51.734, 25.819 51.363 L 43 50.687 43 33.784 L 43 16.880 37.855 11.440 L 32.710 6 26.605 6.180 C 23.247 6.279, 18.250 6.509, 15.500 6.692 M 12.098 8.740 L 7.696 9.130 8.348 22.723 C 8.707 30.199, 9 39.395, 9 43.158 L 9 50 25.026 50 L 41.052 50 40.776 34.750 L 40.500 19.500 38 19.220 C 31.178 18.456, 31 18.297, 31 12.981 L 31 8 23.750 8.175 C 19.762 8.271, 14.519 8.525, 12.098 8.740 M 32.605 12.786 C 32.705 16.301, 32.920 16.535, 36.605 17.145 C 38.747 17.499, 40.603 17.696, 40.729 17.582 C 40.855 17.468, 39.055 15.507, 36.729 13.224 L 32.500 9.072 32.605 12.786 M 25.160 14.250 C 25.033 18.031, 25.331 19, 26.622 19 C 27.810 19, 27.966 18.664, 27.204 17.746 C 26.632 17.056, 25.974 14.919, 25.742 12.996 C 25.381 10.004, 25.297 10.185, 25.160 14.250 M 10.107 14.628 C 9.981 19.490, 12.056 22.028, 14.500 20 C 16.174 18.611, 16.597 11, 15 11 C 14.450 11, 14 12.800, 14 15 C 14 20.260, 12.368 20.116, 11.166 14.750 L 10.214 10.500 10.107 14.628 M 17.418 15.132 C 17.186 15.508, 17.374 16.836, 17.835 18.084 L 18.675 20.353 19.244 18.176 C 19.557 16.979, 20.530 16, 21.406 16 C 22.283 16, 23 15.555, 23 15.011 C 23 13.927, 18.098 14.033, 17.418 15.132 M 15.566 26.076 C 4.678 35.636, 16.150 53.145, 28.961 46.520 C 33.673 44.084, 36 40.304, 36 35.088 C 36 27.527, 31.163 23, 23.084 23 C 20.027 23, 18.234 23.734, 15.566 26.076 M 15.032 28.939 C 14.308 30.292, 14.318 31.078, 15.064 31.539 C 16.352 32.336, 16.555 32.141, 17.443 29.250 C 18.299 26.465, 16.482 26.231, 15.032 28.939 M 19.035 29.934 C 17.557 32.696, 17.702 33, 20.500 33 C 22.500 33, 23 32.500, 23 30.500 C 23 27.489, 20.532 27.137, 19.035 29.934 M 25.688 28.646 C 24.147 30.186, 25.040 33, 27.070 33 C 28.625 33, 29.060 32.461, 28.820 30.828 C 28.488 28.573, 26.880 27.453, 25.688 28.646 M 30.710 30 C 31.245 32.045, 32.155 32.512, 33.325 31.342 C 34.052 30.614, 32.211 28, 30.971 28 C 30.540 28, 30.423 28.900, 30.710 30 M 13.173 35.564 C 13.353 37.094, 14.097 38.542, 14.827 38.782 C 15.762 39.089, 16.057 38.397, 15.827 36.436 C 15.647 34.906, 14.903 33.458, 14.173 33.218 C 13.238 32.911, 12.943 33.603, 13.173 35.564 M 31.787 36 C 31.545 37.650, 31.628 39, 31.973 39 C 33.235 39, 35 36.551, 35 34.800 C 35 31.766, 32.258 32.790, 31.787 36 M 18 37.032 C 18 38.627, 18.669 40.043, 19.590 40.396 C 21.822 41.253, 23 40.272, 23 37.558 C 23 35.872, 22.313 35.102, 20.500 34.755 C 18.323 34.339, 18 34.633, 18 37.032 M 26.250 34.662 C 24.572 35.340, 24.616 41, 26.300 41 C 28.303 41, 30 38.845, 30 36.300 C 30 34.083, 28.888 33.598, 26.250 34.662 M 15.229 42.188 C 15.447 42.841, 16.160 43.553, 16.813 43.771 C 17.544 44.015, 17.767 43.557, 17.394 42.584 C 16.696 40.766, 14.629 40.388, 15.229 42.188 M 29.981 42.523 C 28.924 43.796, 28.986 43.943, 30.359 43.416 C 31.261 43.069, 32 42.384, 32 41.893 C 32 40.607, 31.421 40.788, 29.981 42.523 M 20 42.941 C 20 43.459, 20.450 44.160, 21 44.500 C 21.550 44.840, 22 44.416, 22 43.559 C 22 42.702, 21.550 42, 21 42 C 20.450 42, 20 42.423, 20 42.941 M 24 44 C 24 44.550, 24.423 45, 24.941 45 C 25.459 45, 26.160 44.550, 26.500 44 C 26.840 43.450, 26.416 43, 25.559 43 C 24.702 43, 24 43.450, 24 44" stroke="none" fill="#ececec" fill-rule="evenodd"/></svg>